<svg width="16" height="16" viewBox="0 0 16 16" fill="none" xmlns="http://www.w3.org/2000/svg">
<path d="M11.4165 3.91699V3.92533" stroke="white" stroke-width="2" stroke-linecap="round" stroke-linejoin="round"/>
<path d="M5.1665 7.66699C5.1665 8.33003 5.4299 8.96592 5.89874 9.43476C6.36758 9.9036 7.00346 10.167 7.6665 10.167C8.32955 10.167 8.96543 9.9036 9.43427 9.43476C9.90311 8.96592 10.1665 8.33003 10.1665 7.66699C10.1665 7.00395 9.90311 6.36807 9.43427 5.89922C8.96543 5.43038 8.32955 5.16699 7.6665 5.16699C7.00346 5.16699 6.36758 5.43038 5.89874 5.89922C5.4299 6.36807 5.1665 7.00395 5.1665 7.66699Z" stroke="white" stroke-width="2" stroke-linecap="round" stroke-linejoin="round"/>
<path d="M1 4.33333C1 3.44928 1.35119 2.60143 1.97631 1.97631C2.60143 1.35119 3.44928 1 4.33333 1H11C11.8841 1 12.7319 1.35119 13.357 1.97631C13.9821 2.60143 14.3333 3.44928 14.3333 4.33333V11C14.3333 11.8841 13.9821 12.7319 13.357 13.357C12.7319 13.9821 11.8841 14.3333 11 14.3333H4.33333C3.44928 14.3333 2.60143 13.9821 1.97631 13.357C1.35119 12.7319 1 11.8841 1 11V4.33333Z" stroke="white" stroke-width="2" stroke-linecap="round" stroke-linejoin="round"/>
</svg>
