<svg width="14" height="14" viewBox="0 0 14 14" fill="none" xmlns="http://www.w3.org/2000/svg">
<path d="M1 12.9888L2.1 10.4554C1.25844 9.26079 0.881778 7.8001 1.0407 6.34749C1.19961 4.89487 1.88319 3.55018 2.96314 2.56576C4.04309 1.58135 5.44517 1.02489 6.90625 1.00082C8.36734 0.976739 9.78699 1.4867 10.8988 2.435C12.0106 3.38329 12.7381 4.70473 12.9448 6.15133C13.1515 7.59792 12.8231 9.07022 12.0214 10.2919C11.2197 11.5136 9.99963 12.4008 8.59026 12.7868C7.1809 13.1729 5.67908 13.0313 4.36667 12.3888L1 12.9888Z" stroke="#181E4B" stroke-linecap="round" stroke-linejoin="round"/>
<path d="M5 6C5 6.08841 5.03512 6.17319 5.09763 6.2357C5.16014 6.29821 5.24493 6.33333 5.33333 6.33333C5.42174 6.33333 5.50652 6.29821 5.56904 6.2357C5.63155 6.17319 5.66667 6.08841 5.66667 6V5.33333C5.66667 5.24493 5.63155 5.16014 5.56904 5.09763C5.50652 5.03512 5.42174 5 5.33333 5C5.24493 5 5.16014 5.03512 5.09763 5.09763C5.03512 5.16014 5 5.24493 5 5.33333V6ZM5 6C5 6.88406 5.35119 7.7319 5.97631 8.35702C6.60143 8.98214 7.44928 9.33333 8.33333 9.33333M8.33333 9.33333H9C9.08841 9.33333 9.17319 9.29821 9.2357 9.2357C9.29821 9.17319 9.33333 9.08841 9.33333 9C9.33333 8.91159 9.29821 8.82681 9.2357 8.7643C9.17319 8.70179 9.08841 8.66667 9 8.66667H8.33333C8.24493 8.66667 8.16014 8.70179 8.09763 8.7643C8.03512 8.82681 8 8.91159 8 9C8 9.08841 8.03512 9.17319 8.09763 9.2357C8.16014 9.29821 8.24493 9.33333 8.33333 9.33333Z" stroke="#181E4B" stroke-linecap="round" stroke-linejoin="round"/>
</svg>
