<svg width="17" height="17" viewBox="0 0 17 17" fill="none" xmlns="http://www.w3.org/2000/svg">
<path d="M1 15.9859L2.375 12.8193C1.32305 11.326 0.852223 9.50013 1.05087 7.68436C1.24952 5.86858 2.10399 4.18772 3.45392 2.9572C4.80386 1.72669 6.55646 1.03111 8.38282 1.00102C10.2092 0.970924 11.9837 1.60838 13.3735 2.79375C14.7632 3.97912 15.6726 5.63092 15.931 7.43916C16.1893 9.2474 15.7789 11.0878 14.7768 12.6149C13.7746 14.142 12.2495 15.251 10.4878 15.7335C8.72612 16.2161 6.84885 16.0392 5.20833 15.2359L1 15.9859Z" stroke="white" stroke-linecap="round" stroke-linejoin="round"/>
<path d="M6 6.81885C6 6.92935 6.0439 7.03534 6.12204 7.11348C6.20018 7.19162 6.30616 7.23551 6.41667 7.23551C6.52717 7.23551 6.63315 7.19162 6.71129 7.11348C6.78944 7.03534 6.83333 6.92935 6.83333 6.81885V5.98551C6.83333 5.87501 6.78944 5.76903 6.71129 5.69089C6.63315 5.61275 6.52717 5.56885 6.41667 5.56885C6.30616 5.56885 6.20018 5.61275 6.12204 5.69089C6.0439 5.76903 6 5.87501 6 5.98551V6.81885ZM6 6.81885C6 7.92392 6.43899 8.98372 7.22039 9.76513C8.00179 10.5465 9.0616 10.9855 10.1667 10.9855M10.1667 10.9855H11C11.1105 10.9855 11.2165 10.9416 11.2946 10.8635C11.3728 10.7853 11.4167 10.6794 11.4167 10.5688C11.4167 10.4583 11.3728 10.3524 11.2946 10.2742C11.2165 10.1961 11.1105 10.1522 11 10.1522H10.1667C10.0562 10.1522 9.95018 10.1961 9.87204 10.2742C9.7939 10.3524 9.75 10.4583 9.75 10.5688C9.75 10.6794 9.7939 10.7853 9.87204 10.8635C9.95018 10.9416 10.0562 10.9855 10.1667 10.9855Z" stroke="white" stroke-linecap="round" stroke-linejoin="round"/>
</svg>
