<svg width="20" height="25" viewBox="0 0 20 25" fill="none" xmlns="http://www.w3.org/2000/svg">
<path d="M19.0788 24.6667H16.7454V22.3333C16.7454 21.4051 16.3767 20.5148 15.7203 19.8584C15.0639 19.2021 14.1737 18.8333 13.2454 18.8333H6.24544C5.31718 18.8333 4.42695 19.2021 3.77057 19.8584C3.11419 20.5148 2.74544 21.4051 2.74544 22.3333V24.6667H0.412109V22.3333C0.412109 20.7862 1.02669 19.3025 2.12065 18.2085C3.21462 17.1146 4.69835 16.5 6.24544 16.5H13.2454C14.7925 16.5 16.2763 17.1146 17.3702 18.2085C18.4642 19.3025 19.0788 20.7862 19.0788 22.3333V24.6667ZM9.74544 14.1667C8.82619 14.1667 7.91594 13.9856 7.06666 13.6338C6.21738 13.282 5.4457 12.7664 4.79569 12.1164C4.14568 11.4664 3.63007 10.6947 3.27829 9.84544C2.9265 8.99616 2.74544 8.08591 2.74544 7.16666C2.74544 6.2474 2.9265 5.33715 3.27829 4.48787C3.63007 3.63859 4.14568 2.86692 4.79569 2.21691C5.4457 1.5669 6.21738 1.05128 7.06666 0.6995C7.91594 0.347717 8.82619 0.166656 9.74544 0.166656C11.602 0.166657 13.3824 0.904154 14.6952 2.21691C16.0079 3.52966 16.7454 5.31014 16.7454 7.16666C16.7454 9.02317 16.0079 10.8036 14.6952 12.1164C13.3824 13.4292 11.602 14.1667 9.74544 14.1667ZM9.74544 11.8333C10.9831 11.8333 12.1701 11.3417 13.0453 10.4665C13.9204 9.59132 14.4121 8.40433 14.4121 7.16666C14.4121 5.92898 13.9204 4.74199 13.0453 3.86682C12.1701 2.99166 10.9831 2.49999 9.74544 2.49999C8.50776 2.49999 7.32078 2.99166 6.44561 3.86682C5.57044 4.74199 5.07878 5.92898 5.07878 7.16666C5.07878 8.40433 5.57044 9.59132 6.44561 10.4665C7.32078 11.3417 8.50776 11.8333 9.74544 11.8333Z" fill="#3E4958"/>
</svg>
