<svg width="95" height="27" viewBox="0 0 95 27" fill="none" xmlns="http://www.w3.org/2000/svg">
<path d="M8.632 26.432C6.928 26.432 5.356 26.12 3.916 25.496C2.5 24.848 1.336 23.936 0.424 22.76L3.664 18.872C4.36 19.784 5.092 20.48 5.86 20.96C6.628 21.416 7.456 21.644 8.344 21.644C10.72 21.644 11.908 20.252 11.908 17.468V5.48H3.052V0.799998H17.704V17.144C17.704 20.264 16.936 22.592 15.4 24.128C13.864 25.664 11.608 26.432 8.632 26.432ZM28.1086 26.432C26.4046 26.432 24.8326 26.12 23.3926 25.496C21.9766 24.848 20.8126 23.936 19.9006 22.76L23.1406 18.872C23.8366 19.784 24.5686 20.48 25.3366 20.96C26.1046 21.416 26.9326 21.644 27.8206 21.644C30.1966 21.644 31.3846 20.252 31.3846 17.468V5.48H22.5286V0.799998H37.1806V17.144C37.1806 20.264 36.4126 22.592 34.8766 24.128C33.3406 25.664 31.0846 26.432 28.1086 26.432ZM84.1833 26.432C82.1913 26.432 80.3553 26.12 78.6753 25.496C77.0193 24.848 75.5673 23.936 74.3193 22.76C73.0953 21.584 72.1353 20.204 71.4393 18.62C70.7673 17.036 70.4313 15.296 70.4313 13.4C70.4313 11.504 70.7673 9.764 71.4393 8.18C72.1353 6.596 73.1073 5.216 74.3553 4.04C75.6033 2.864 77.0673 1.964 78.7473 1.34C80.4273 0.691999 82.2753 0.368 84.2913 0.368C86.5233 0.368 88.5273 0.739999 90.3033 1.484C92.1033 2.228 93.6153 3.308 94.8393 4.724L91.0953 8.18C90.1833 7.22 89.1873 6.512 88.1073 6.056C87.0273 5.576 85.8513 5.336 84.5793 5.336C83.3553 5.336 82.2393 5.528 81.2313 5.912C80.2233 6.296 79.3473 6.848 78.6033 7.568C77.8833 8.288 77.3193 9.14 76.9113 10.124C76.5273 11.108 76.3353 12.2 76.3353 13.4C76.3353 14.576 76.5273 15.656 76.9113 16.64C77.3193 17.624 77.8833 18.488 78.6033 19.232C79.3473 19.952 80.2113 20.504 81.1953 20.888C82.2033 21.272 83.3073 21.464 84.5073 21.464C85.6593 21.464 86.7753 21.284 87.8553 20.924C88.9593 20.54 90.0273 19.904 91.0593 19.016L94.3713 23.228C93.0033 24.26 91.4073 25.052 89.5833 25.604C87.7833 26.156 85.9833 26.432 84.1833 26.432ZM89.0433 22.472V13.004H94.3713V23.228L89.0433 22.472Z" fill="#333333"/>
<path d="M42.9411 26V0.799998H47.7651L62.6331 18.944H60.2931V0.799998H66.0531V26H61.2651L46.3611 7.856H48.7011V26H42.9411Z" fill="#85AA89"/>
</svg>
